<svg class="main-svg" xmlns="http://www.w3.org/2000/svg" xmlns:xlink="http://www.w3.org/1999/xlink" width="1400" height="500" style="" viewBox="0 0 1400 500"><rect x="0" y="0" width="1400" height="500" style="fill: rgb(255, 255, 255); fill-opacity: 1;"/><defs id="defs-cdf193"><g class="clips"/><g class="gradients"/><g class="patterns"/></defs><g class="bglayer"/><g class="layer-below"><g class="imagelayer"/><g class="shapelayer"/></g><g class="cartesianlayer"/><g class="polarlayer"/><g class="smithlayer"/><g class="ternarylayer"/><g class="geolayer"/><g class="funnelarealayer"/><g class="pielayer"/><g class="iciclelayer"/><g class="treemaplayer"/><g class="sunburstlayer"/><g class="glimages"/><g class="sankey" transform="translate(80,100)matrix(1 0 0 1 0 0)" style="box-sizing: content-box; position: absolute; left: 0px; shape-rendering: geometricprecision; pointer-events: auto;"><g class="sankey-links" style="fill: none;"><path class="sankey-link" d="M20,61.37272438155463C132,61.37272438155463 132,61.34996184801278 244,61.34996184801278L244,168.01662851467947C132,168.01662851467947 132,168.03939104822132 20,168.03939104822132Z" style="stroke: rgb(68, 68, 68); stroke-opacity: 1; fill: rgb(0, 0, 0); fill-opacity: 0.2; stroke-width: 0; opacity: 1;"/><path class="sankey-link" d="M264,61.34996184801278C376,61.34996184801278 376,61.304293335407436 488,61.304293335407436L488,167.97096000207412C376,167.97096000207412 376,168.01662851467947 264,168.01662851467947Z" style="stroke: rgb(68, 68, 68); stroke-opacity: 1; fill: rgb(0, 0, 0); fill-opacity: 0.2; stroke-width: 0; opacity: 1;"/><path class="sankey-link" d="M508,153.7487377798519C620,153.7487377798519 620,225.77777777777777 732,225.77777777777777L732,230.51851851851853C620,230.51851851851853 620,158.48947852059266 508,158.48947852059266Z" style="stroke: rgb(68, 68, 68); stroke-opacity: 1; fill: rgb(0, 0, 0); fill-opacity: 0.2; stroke-width: 0; opacity: 1;"/><path class="sankey-link" d="M752,225.77777777777777C986,225.77777777777777 986,167.62378633616052 1220,167.62378633616052L1220,172.36452707690128C986,172.36452707690128 986,230.51851851851853 752,230.51851851851853Z" style="stroke: rgb(68, 68, 68); stroke-opacity: 1; fill: rgb(0, 0, 0); fill-opacity: 0.2; stroke-width: 0; opacity: 1;"/><path class="sankey-link" d="M508,163.23021926133336C620,163.23021926133336 620,288.59259259259267 732,288.59259259259267L732,290.962962962963C620,290.962962962963 620,165.60058963170374 508,165.60058963170374Z" style="stroke: rgb(68, 68, 68); stroke-opacity: 1; fill: rgb(0, 0, 0); fill-opacity: 0.2; stroke-width: 0; opacity: 1;"/><path class="sankey-link" d="M752,288.59259259259267C986,288.59259259259267 986,177.105267817642 1220,177.105267817642L1220,179.47563818801237C986,179.47563818801237 986,290.962962962963 752,290.962962962963Z" style="stroke: rgb(68, 68, 68); stroke-opacity: 1; fill: rgb(0, 0, 0); fill-opacity: 0.2; stroke-width: 0; opacity: 1;"/><path class="sankey-link" d="M508,158.48947852059263C620,158.48947852059263 620,257.1851851851852 732,257.1851851851852L732,261.925925925926C620,261.925925925926 620,163.2302192613334 508,163.2302192613334Z" style="stroke: rgb(68, 68, 68); stroke-opacity: 1; fill: rgb(0, 0, 0); fill-opacity: 0.2; stroke-width: 0; opacity: 1;"/><path class="sankey-link" d="M752,257.1851851851852C986,257.1851851851852 986,172.36452707690125 1220,172.36452707690125L1220,177.10526781764202C986,177.10526781764202 986,261.925925925926 752,261.925925925926Z" style="stroke: rgb(68, 68, 68); stroke-opacity: 1; fill: rgb(0, 0, 0); fill-opacity: 0.2; stroke-width: 0; opacity: 1;"/><path class="sankey-link" d="M508,134.78577481688893C620,134.78577481688893 620,153.48148148148132 732,153.48148148148132L732,165.33333333333317C620,165.33333333333317 620,146.63762666874078 508,146.63762666874078Z" style="stroke: rgb(68, 68, 68); stroke-opacity: 1; fill: rgb(0, 0, 0); fill-opacity: 0.2; stroke-width: 0; opacity: 1;"/><path class="sankey-link" d="M752,153.48148148148132C986,153.48148148148132 986,148.66082337319756 1220,148.66082337319756L1220,160.5126752250494C986,160.5126752250494 986,165.33333333333317 752,165.33333333333317Z" style="stroke: rgb(68, 68, 68); stroke-opacity: 1; fill: rgb(0, 0, 0); fill-opacity: 0.2; stroke-width: 0; opacity: 1;"/><path class="sankey-link" d="M508,111.08207111318522C620,111.08207111318522 620,103.11111111111089 732,103.11111111111089L732,126.81481481481458C620,126.81481481481458 620,134.78577481688893 508,134.78577481688893Z" style="stroke: rgb(68, 68, 68); stroke-opacity: 1; fill: rgb(0, 0, 0); fill-opacity: 0.2; stroke-width: 0; opacity: 1;"/><path class="sankey-link" d="M752,103.11111111111089C986,103.11111111111089 986,124.95711966949386 1220,124.95711966949386L1220,148.66082337319756C986,148.66082337319756 986,126.81481481481458 752,126.81481481481458Z" style="stroke: rgb(68, 68, 68); stroke-opacity: 1; fill: rgb(0, 0, 0); fill-opacity: 0.2; stroke-width: 0; opacity: 1;"/><path class="sankey-link" d="M508,146.63762666874078C620,146.63762666874078 620,191.99999999999994 732,191.99999999999994L732,199.11111111111103C620,199.11111111111103 620,153.74873777985187 508,153.74873777985187Z" style="stroke: rgb(68, 68, 68); stroke-opacity: 1; fill: rgb(0, 0, 0); fill-opacity: 0.2; stroke-width: 0; opacity: 1;"/><path class="sankey-link" d="M752,191.99999999999994C986,191.99999999999994 986,160.5126752250494 1220,160.5126752250494L1220,167.6237863361605C986,167.6237863361605 986,199.11111111111103 752,199.11111111111103Z" style="stroke: rgb(68, 68, 68); stroke-opacity: 1; fill: rgb(0, 0, 0); fill-opacity: 0.2; stroke-width: 0; opacity: 1;"/><path class="sankey-link" d="M508,165.60058963170374C620,165.60058963170374 620,317.6296296296297 732,317.6296296296297L732,320C620,320 620,167.97096000207412 508,167.97096000207412Z" style="stroke: rgb(68, 68, 68); stroke-opacity: 1; fill: rgb(0, 0, 0); fill-opacity: 0.2; stroke-width: 0; opacity: 1;"/><path class="sankey-link" d="M752,317.6296296296297C986,317.6296296296297 986,179.47563818801237 1220,179.47563818801237L1220,181.84600855838275C986,181.84600855838275 986,320 752,320Z" style="stroke: rgb(68, 68, 68); stroke-opacity: 1; fill: rgb(0, 0, 0); fill-opacity: 0.2; stroke-width: 0; opacity: 1;"/><path class="sankey-link" d="M508,85.00799703911115C620,85.00799703911115 620,50.37037037037015 732,50.37037037037015L732,76.44444444444423C620,76.44444444444423 620,111.08207111318522 508,111.08207111318522Z" style="stroke: rgb(68, 68, 68); stroke-opacity: 1; fill: rgb(0, 0, 0); fill-opacity: 0.2; stroke-width: 0; opacity: 1;"/><path class="sankey-link" d="M752,50.37037037037015C986,50.37037037037015 986,89.40156411393829 1220,89.40156411393829L1220,115.47563818801237C986,115.47563818801237 986,76.44444444444423 752,76.44444444444423Z" style="stroke: rgb(68, 68, 68); stroke-opacity: 1; fill: rgb(0, 0, 0); fill-opacity: 0.2; stroke-width: 0; opacity: 1;"/><path class="sankey-link" d="M508,61.30429333540744C620,61.30429333540744 620,-2.7000623958883807e-13 732,-2.7000623958883807e-13L732,23.703703703703436C620,23.703703703703436 620,85.00799703911115 508,85.00799703911115Z" style="stroke: rgb(68, 68, 68); stroke-opacity: 1; fill: rgb(0, 0, 0); fill-opacity: 0.2; stroke-width: 0; opacity: 1;"/><path class="sankey-link" d="M752,-2.7000623958883807e-13C986,-2.7000623958883807e-13 986,4.7407407407404865 1220,4.7407407407404865L1220,18.962962962962713C986,18.962962962962713 986,14.222222222221955 752,14.222222222221955Z" style="stroke: rgb(68, 68, 68); stroke-opacity: 1; fill: rgb(0, 0, 0); fill-opacity: 0.2; stroke-width: 0; opacity: 1;"/><path class="sankey-link" d="M752,14.222222222221955C864,14.222222222221955 864,86.80417558223277 976,86.80417558223277L976,96.28565706371427C864,96.28565706371427 864,23.703703703703436 752,23.703703703703436Z" style="stroke: rgb(68, 68, 68); stroke-opacity: 1; fill: rgb(0, 0, 0); fill-opacity: 0.2; stroke-width: 0; opacity: 1;"/><path class="sankey-link" d="M996,86.80417558223277C1108,86.80417558223277 1108,115.47563818801237 1220,115.47563818801237L1220,124.95711966949386C1108,124.95711966949386 1108,96.28565706371427 996,96.28565706371427Z" style="stroke: rgb(68, 68, 68); stroke-opacity: 1; fill: rgb(0, 0, 0); fill-opacity: 0.2; stroke-width: 0; opacity: 1;"/></g><g class="sankey-node-set" style="cursor: move;"><g class="sankey-node" transform="translate(0.000,61.373)" style="opacity: 1;"><rect class="node-rect" width="20" height="106.66666666666671" style="stroke-width: 0.5; stroke: rgb(0, 0, 0); stroke-opacity: 1; fill: rgb(0, 0, 255); fill-opacity: 1;"/><text class="node-label" data-notex="1" x="0" y="0" text-anchor="start" transform="translate(23.25,62.08333333333336)" style="cursor: default; font-family: 'Open Sans', verdana, arial, sans-serif; font-size: 25px; fill: rgb(42, 63, 95); fill-opacity: 1; white-space: pre; text-shadow: white 1px 1px 1px, white -1px -1px 1px, white 1px -1px 1px, white -1px 1px 1px;">Removing NA</text></g><g class="sankey-node" transform="translate(244.000,61.350)" style="opacity: 1;"><rect class="node-rect" width="20" height="106.66666666666657" style="stroke-width: 0.5; stroke: rgb(0, 0, 0); stroke-opacity: 1; fill: rgb(0, 0, 255); fill-opacity: 1;"/><text class="node-label" data-notex="1" x="0" y="0" text-anchor="start" transform="translate(23.25,62.083333333333286)" style="cursor: default; font-family: 'Open Sans', verdana, arial, sans-serif; font-size: 25px; fill: rgb(42, 63, 95); fill-opacity: 1; white-space: pre; text-shadow: white 1px 1px 1px, white -1px -1px 1px, white 1px -1px 1px, white -1px 1px 1px;">Balancing</text></g><g class="sankey-node" transform="translate(488.000,61.304)" style="opacity: 1;"><rect class="node-rect" width="20" height="106.6666666666668" style="stroke-width: 0.5; stroke: rgb(0, 0, 0); stroke-opacity: 1; fill: rgb(0, 0, 255); fill-opacity: 1;"/><text class="node-label" data-notex="1" x="0" y="0" text-anchor="start" transform="translate(23.25,62.0833333333334)" style="cursor: default; font-family: 'Open Sans', verdana, arial, sans-serif; font-size: 25px; fill: rgb(42, 63, 95); fill-opacity: 1; white-space: pre; text-shadow: white 1px 1px 1px, white -1px -1px 1px, white 1px -1px 1px, white -1px 1px 1px;">Various checks</text></g><g class="sankey-node" transform="translate(732.000,-0.000)" style="opacity: 1;"><rect class="node-rect" width="20" height="23.703703703703752" style="stroke-width: 0.5; stroke: rgb(0, 0, 0); stroke-opacity: 1; fill: rgb(0, 0, 255); fill-opacity: 1;"/><text class="node-label" data-notex="1" x="0" y="0" text-anchor="start" transform="translate(23.25,20.601851851851876)" style="cursor: default; font-family: 'Open Sans', verdana, arial, sans-serif; font-size: 25px; fill: rgb(42, 63, 95); fill-opacity: 1; white-space: pre; text-shadow: white 1px 1px 1px, white -1px -1px 1px, white 1px -1px 1px, white -1px 1px 1px;">Checks passed</text></g><g class="sankey-node" transform="translate(1220.000,4.741)" style="opacity: 1;"><rect class="node-rect" width="20" height="14.222222222222221" style="stroke-width: 0.5; stroke: rgb(0, 0, 0); stroke-opacity: 1; fill: rgb(0, 0, 255); fill-opacity: 1;"/><text class="node-label" data-notex="1" x="0" y="0" text-anchor="end" transform="translate(-3.25,15.86111111111111)" style="cursor: default; font-family: 'Open Sans', verdana, arial, sans-serif; font-size: 25px; fill: rgb(42, 63, 95); fill-opacity: 1; white-space: pre; text-shadow: white 1px 1px 1px, white -1px -1px 1px, white 1px -1px 1px, white -1px 1px 1px;">Datasets used</text></g><g class="sankey-node" transform="translate(976.000,86.804)" style="opacity: 1;"><rect class="node-rect" width="20" height="9.481481481481438" style="stroke-width: 0.5; stroke: rgb(0, 0, 0); stroke-opacity: 1; fill: rgb(255, 0, 0); fill-opacity: 1;"/><text class="node-label" data-notex="1" x="0" y="0" text-anchor="start" transform="translate(23.25,13.49074074074072)" style="cursor: default; font-family: 'Open Sans', verdana, arial, sans-serif; font-size: 25px; fill: rgb(42, 63, 95); fill-opacity: 1; white-space: pre; text-shadow: white 1px 1px 1px, white -1px -1px 1px, white 1px -1px 1px, white -1px 1px 1px;">Too easy</text></g><g class="sankey-node" transform="translate(1220.000,89.402)" style="opacity: 1;"><rect class="node-rect" width="20" height="92.44444444444443" style="stroke-width: 0.5; stroke: rgb(0, 0, 0); stroke-opacity: 1; fill: rgb(255, 0, 0); fill-opacity: 1;"/><text class="node-label" data-notex="1" x="0" y="0" text-anchor="end" transform="translate(-3.25,54.972222222222214)" style="cursor: default; font-family: 'Open Sans', verdana, arial, sans-serif; font-size: 25px; fill: rgb(42, 63, 95); fill-opacity: 1; white-space: pre; text-shadow: white 1px 1px 1px, white -1px -1px 1px, white 1px -1px 1px, white -1px 1px 1px;">Not used</text></g><g class="sankey-node" transform="translate(732.000,225.778)" style="opacity: 1;"><rect class="node-rect" width="20" height="4.740740740740762" style="stroke-width: 0.5; stroke: rgb(0, 0, 0); stroke-opacity: 1; fill: rgb(255, 0, 0); fill-opacity: 1;"/><text class="node-label" data-notex="1" x="0" y="0" text-anchor="start" transform="translate(23.25,11.120370370370381)" style="cursor: default; font-family: 'Open Sans', verdana, arial, sans-serif; font-size: 25px; fill: rgb(42, 63, 95); fill-opacity: 1; white-space: pre; text-shadow: white 1px 1px 1px, white -1px -1px 1px, white 1px -1px 1px, white -1px 1px 1px;">High dimensional</text></g><g class="sankey-node" transform="translate(732.000,288.593)" style="opacity: 1;"><rect class="node-rect" width="20" height="2.370370370370324" style="stroke-width: 0.5; stroke: rgb(0, 0, 0); stroke-opacity: 1; fill: rgb(255, 0, 0); fill-opacity: 1;"/><text class="node-label" data-notex="1" x="0" y="0" text-anchor="start" transform="translate(23.25,9.935185185185162)" style="cursor: default; font-family: 'Open Sans', verdana, arial, sans-serif; font-size: 25px; fill: rgb(42, 63, 95); fill-opacity: 1; white-space: pre; text-shadow: white 1px 1px 1px, white -1px -1px 1px, white 1px -1px 1px, white -1px 1px 1px;">Time series</text></g><g class="sankey-node" transform="translate(732.000,257.185)" style="opacity: 1;"><rect class="node-rect" width="20" height="4.740740740740762" style="stroke-width: 0.5; stroke: rgb(0, 0, 0); stroke-opacity: 1; fill: rgb(255, 0, 0); fill-opacity: 1;"/><text class="node-label" data-notex="1" x="0" y="0" text-anchor="start" transform="translate(23.25,11.120370370370381)" style="cursor: default; font-family: 'Open Sans', verdana, arial, sans-serif; font-size: 25px; fill: rgb(42, 63, 95); fill-opacity: 1; white-space: pre; text-shadow: white 1px 1px 1px, white -1px -1px 1px, white 1px -1px 1px, white -1px 1px 1px;">Too little information</text></g><g class="sankey-node" transform="translate(732.000,153.481)" style="opacity: 1;"><rect class="node-rect" width="20" height="11.851851851851961" style="stroke-width: 0.5; stroke: rgb(0, 0, 0); stroke-opacity: 1; fill: rgb(255, 0, 0); fill-opacity: 1;"/><text class="node-label" data-notex="1" x="0" y="0" text-anchor="start" transform="translate(23.25,14.67592592592598)" style="cursor: default; font-family: 'Open Sans', verdana, arial, sans-serif; font-size: 25px; fill: rgb(42, 63, 95); fill-opacity: 1; white-space: pre; text-shadow: white 1px 1px 1px, white -1px -1px 1px, white 1px -1px 1px, white -1px 1px 1px;">Redundant</text></g><g class="sankey-node" transform="translate(732.000,103.111)" style="opacity: 1;"><rect class="node-rect" width="20" height="23.70370370370378" style="stroke-width: 0.5; stroke: rgb(0, 0, 0); stroke-opacity: 1; fill: rgb(255, 0, 0); fill-opacity: 1;"/><text class="node-label" data-notex="1" x="0" y="0" text-anchor="start" transform="translate(23.25,20.60185185185189)" style="cursor: default; font-family: 'Open Sans', verdana, arial, sans-serif; font-size: 25px; fill: rgb(42, 63, 95); fill-opacity: 1; white-space: pre; text-shadow: white 1px 1px 1px, white -1px -1px 1px, white 1px -1px 1px, white -1px 1px 1px;">Artificial</text></g><g class="sankey-node" transform="translate(732.000,192.000)" style="opacity: 1;"><rect class="node-rect" width="20" height="7.111111111111143" style="stroke-width: 0.5; stroke: rgb(0, 0, 0); stroke-opacity: 1; fill: rgb(255, 0, 0); fill-opacity: 1;"/><text class="node-label" data-notex="1" x="0" y="0" text-anchor="start" transform="translate(23.25,12.305555555555571)" style="cursor: default; font-family: 'Open Sans', verdana, arial, sans-serif; font-size: 25px; fill: rgb(42, 63, 95); fill-opacity: 1; white-space: pre; text-shadow: white 1px 1px 1px, white -1px -1px 1px, white 1px -1px 1px, white -1px 1px 1px;">Not Heterogeneous</text></g><g class="sankey-node" transform="translate(732.000,317.630)" style="opacity: 1;"><rect class="node-rect" width="20" height="2.370370370370324" style="stroke-width: 0.5; stroke: rgb(0, 0, 0); stroke-opacity: 1; fill: rgb(255, 0, 0); fill-opacity: 1;"/><text class="node-label" data-notex="1" x="0" y="0" text-anchor="start" transform="translate(23.25,9.935185185185162)" style="cursor: default; font-family: 'Open Sans', verdana, arial, sans-serif; font-size: 25px; fill: rgb(42, 63, 95); fill-opacity: 1; white-space: pre; text-shadow: white 1px 1px 1px, white -1px -1px 1px, white 1px -1px 1px, white -1px 1px 1px;">Deterministic</text></g><g class="sankey-node" transform="translate(732.000,50.370)" style="opacity: 1;"><rect class="node-rect" width="20" height="26.074074074074076" style="stroke-width: 0.5; stroke: rgb(0, 0, 0); stroke-opacity: 1; fill: rgb(255, 0, 0); fill-opacity: 1;"/><text class="node-label" data-notex="1" x="0" y="0" text-anchor="start" transform="translate(23.25,21.787037037037038)" style="cursor: default; font-family: 'Open Sans', verdana, arial, sans-serif; font-size: 25px; fill: rgb(42, 63, 95); fill-opacity: 1; white-space: pre; text-shadow: white 1px 1px 1px, white -1px -1px 1px, white 1px -1px 1px, white -1px 1px 1px;">Not enough categorical columns</text></g></g></g><defs id="topdefs-cdf193"><g class="clips"/></defs><g class="layer-above"><g class="imagelayer"/><g class="shapelayer"/></g><g class="infolayer"><g class="g-gtitle"><text class="gtitle" x="70" y="50" text-anchor="start" dy="0em" style="font-family: 'Open Sans', verdana, arial, sans-serif; font-size: 35px; fill: rgb(42, 63, 95); opacity: 1; font-weight: normal; white-space: pre;">Dataset filtering process</text></g><g class="first-render"/></g></svg>